<?xml version="1.0" encoding="UTF-8"?>
<svg version="1.1" xmlns="http://www.w3.org/2000/svg" width="1926" height="2160">
    <defs>
        <linearGradient id="myGradient" x1="0%" y1="0%" x2="100%" y2="0%">
            <stop offset="0%" style="stop-color:#461923; stop-opacity:1" />
            <stop offset="100%" style="stop-color:#9C3946; stop-opacity:1" />
        </linearGradient>
    </defs>
    <path d="M0 0 C635.58 0 1271.16 0 1926 0 C1926 712.8 1926 1425.6 1926 2160 C1290.42 2160 654.84 2160 0 2160 C0 1447.2 0 734.4 0 0 Z" fill="url(#myGradient)" transform="translate(0,0)"/>
    <path d="M0 0 C30.36 0 60.72 0 92 0 C90.87549733 14.61853465 90.87549733 14.61853465 89.89941406 20.7109375 C89.79306169 21.38488902 89.68670931 22.05884054 89.57713413 22.75321484 C89.34776717 24.20294638 89.11611187 25.65231751 88.88230324 27.10133934 C88.50097601 29.46583394 88.12628227 31.831305 87.75309753 34.19709778 C87.20821583 37.64949406 86.66123821 41.10154816 86.11276245 44.55337524 C70.44577146 143.30286469 57.51940276 242.48351066 1 1079 C0.67 1079 0.34 1079 0 1079 C0 722.93 0 366.86 0 0 Z" fill="#fff" transform="translate(0,0)"/>
    <path d="M0 0 C0.33 0 0.66 0 1 0 C1.01839432 0.98365036 1.03678864 1.96730072 1.05574036 2.98075867 C3.00830644 106.94164954 6.31902793 210.80817225 55.37573242 813.5065918 C55.48893326 814.42349792 55.60213409 815.34040405 55.71876526 816.28509521 C55.92361454 817.93899628 56.13062931 819.5926315 56.34043884 821.24591064 C56.74941449 824.53983395 57 827.67283791 57 831 C38.19 831 19.38 831 0 831 C0 556.77 0 282.54 0 0 Z" fill="#fff" transform="translate(0,1329)"/>
</svg>